<?xml version="1.0" encoding="utf-8"?>
<!-- Uploaded to: SVG Repo, www.svgrepo.com, Generator: SVG Repo Mixer Tools -->
<svg fill="#000000" version="1.1" id="Layer_1" xmlns="http://www.w3.org/2000/svg" xmlns:xlink="http://www.w3.org/1999/xlink" 
	 width="800px" height="800px" viewBox="0 0 256 178" enable-background="new 0 0 256 178" xml:space="preserve">
<path d="M91.743,110.435l23.352,8.271c-10.104,13.361-26.13,25.42-26.13,25.42l3.598,19.688c6.566,0,11.929,5.246,12.074,11.81
	v0.003H81.012l-7.216-43.258C80.304,125.52,86.312,118.207,91.743,110.435z M196.106,127.513l15.566,48.112h22.641
	c0-6.523-5.289-11.813-11.813-11.813l-7.763-42.698C205.14,126.786,196.106,127.513,196.106,127.513z M234.313,29.938v-3.691
	L222.5,22.063c0.136-10.722-8.473-19.51-19.196-19.595l-11.812-0.093c-26.367,0-47.742,21.375-47.742,47.742V57.5H60.549h-0.073
	c-20.363,0-37.732,15.224-40.401,35.412l-5.14,38.891C14.08,138.267,8.52,143.141,2,143.141v16.734c0,0,20.057-4.553,22.694-26.782
	l5.14-38.891c1.511-11.431,9.237-20.76,19.481-24.756l-9.708,52.444l-4.779,5.109c-0.837,0.896-1.21,2.129-1.008,3.338l7.555,45.289
	H65c0-6.523-5.289-11.813-11.813-11.813h-0.984l-2.875-19.688l0.604-0.483c15.089-12.068,28.151-26.472,38.693-42.665l47.59,16.854
	c4.987,1.766,10.238,2.669,15.529,2.669h15.631v55.125H191v-1.969c0-5.437-4.407-9.844-9.844-9.844l7.875-43.313l7.717-1.013
	c17.616-3.309,26.829-14.737,31.17-24.374c4.396-9.757,6.398-19.219,6.395-29.297c-0.001-4.534-0.001-8.316-0.001-8.316h8.579
	c4.17,0,7.76-2.943,8.578-7.032L254,37.813L234.313,29.938z"/>
</svg>